<?xml version="1.0" standalone="no"?>
<!DOCTYPE svg PUBLIC "-//W3C//DTD SVG 20010904//EN"
 "http://www.w3.org/TR/2001/REC-SVG-20010904/DTD/svg10.dtd">
<svg version="1.0" xmlns="http://www.w3.org/2000/svg"
 width="554.000000pt" height="551.000000pt" viewBox="0 0 554.000000 551.000000"
 preserveAspectRatio="xMidYMid meet">

<g transform="translate(0.000000,551.000000) scale(0.100000,-0.100000)"
fill="#000000" stroke="none">
<path d="M1933 4918 c-30 -12 -53 -27 -53 -35 0 -10 6 -12 19 -8 23 7 38 -12
22 -28 -13 -13 -15 -47 -2 -47 5 0 11 6 14 13 3 9 16 12 35 9 42 -6 57 23 41
78 -7 22 -15 40 -18 39 -3 0 -30 -10 -58 -21z m57 -43 c0 -30 -25 -34 -39 -6
-12 21 -5 31 21 31 13 0 18 -7 18 -25z"/>
<path d="M3534 4859 c-8 -14 -7 -14 59 -43 38 -17 58 -22 63 -14 8 12 -11 25
-73 50 -28 11 -44 14 -49 7z"/>
<path d="M1945 4776 c-13 -19 -14 -28 -4 -50 21 -46 89 -30 89 20 0 51 -58 71
-85 30z m61 -17 c8 -14 -21 -43 -35 -35 -6 4 -11 16 -11 27 0 21 34 27 46 8z"/>
<path d="M3534 4764 c-13 -18 -14 -28 -6 -36 8 -8 14 -4 21 15 14 36 24 34 16
-1 -8 -36 16 -62 40 -42 8 7 15 21 15 31 0 11 5 19 10 19 19 0 10 17 -15 28
-40 18 -63 14 -81 -14z m62 -41 c-11 -11 -19 6 -11 24 8 17 8 17 12 0 3 -10 2
-21 -1 -24z"/>
<path d="M1993 4678 c-18 -6 -33 -14 -33 -19 0 -16 20 -20 41 -8 17 9 25 8 37
-5 15 -15 14 -17 -16 -28 -20 -8 -32 -19 -32 -31 0 -14 4 -16 19 -7 29 15 61
12 61 -6 0 -8 -13 -20 -30 -25 -36 -13 -43 -44 -7 -34 46 14 68 35 61 58 -4
12 -11 24 -15 25 -5 2 -9 15 -9 28 0 32 -17 64 -33 63 -7 -1 -27 -6 -44 -11z"/>
<path d="M3486 4662 c-22 -42 -20 -48 12 -60 15 -5 35 -13 45 -17 30 -13 19
19 -14 38 -25 14 -29 20 -20 31 9 11 18 12 41 3 31 -12 51 -4 33 14 -5 5 -26
12 -46 16 -32 5 -37 2 -51 -25z"/>
<path d="M3672 4638 c-7 -7 -12 -18 -12 -26 0 -10 -7 -12 -25 -8 -35 9 -33
-17 3 -34 83 -39 92 -41 92 -25 0 9 -11 20 -25 25 -16 6 -25 17 -25 31 0 22
18 23 63 4 12 -5 17 -3 17 8 0 8 -14 20 -31 26 -40 14 -42 14 -57 -1z"/>
<path d="M3445 4560 c-15 -16 -17 -26 -9 -48 8 -22 15 -27 44 -27 29 0 36 5
44 28 20 55 -40 90 -79 47z m60 -20 c9 -15 -14 -40 -31 -33 -22 8 -18 43 5 43
11 0 23 -5 26 -10z"/>
<path d="M3630 4541 c0 -6 -9 -11 -20 -11 -21 0 -27 -15 -10 -25 7 -4 7 -12 1
-23 -7 -13 -4 -23 11 -39 l21 -23 -31 0 c-39 0 -47 -12 -22 -35 29 -26 25 -38
-10 -30 -23 5 -30 3 -30 -9 0 -11 9 -16 28 -16 15 0 37 -3 50 -6 27 -8 31 20
5 48 -15 17 -14 18 15 18 43 0 43 31 2 62 -25 18 -28 24 -15 30 8 5 23 4 34
-2 26 -13 51 -3 51 22 0 17 -3 18 -14 9 -17 -14 -61 3 -51 19 3 5 1 11 -5 15
-5 3 -10 1 -10 -4z"/>
<path d="M2100 4489 c16 -29 3 -38 -16 -11 -17 25 -42 29 -50 7 -7 -16 16 -75
29 -75 23 0 67 33 67 49 0 30 -11 51 -26 51 -12 0 -12 -4 -4 -21z m-31 -38
c-15 -5 -22 6 -14 19 6 9 10 9 16 -1 5 -8 4 -15 -2 -18z"/>
<path d="M3400 4461 c-26 -49 8 -82 42 -41 10 12 21 20 25 16 4 -3 1 -12 -5
-18 -7 -7 -12 -18 -12 -25 0 -24 17 -14 30 18 11 26 11 33 -2 46 -14 14 -18
13 -38 -7 -12 -12 -24 -19 -28 -16 -3 4 0 12 6 18 14 14 16 28 2 28 -5 0 -14
-9 -20 -19z"/>
<path d="M2091 4394 c-40 -17 -33 -29 16 -29 46 0 55 -22 14 -36 -17 -6 -31
-17 -31 -25 0 -17 3 -17 44 0 44 18 50 29 35 71 -14 39 -27 42 -78 19z"/>
<path d="M3370 4385 c0 -8 -4 -15 -10 -15 -23 0 -7 -21 30 -40 47 -24 50 -24
50 -5 0 9 -11 21 -25 27 -14 6 -25 19 -25 30 0 10 -4 18 -10 18 -5 0 -10 -7
-10 -15z"/>
<path d="M3334 4302 c-46 -31 -4 -109 46 -82 25 13 43 47 34 62 -4 7 -12 1
-21 -16 -7 -14 -18 -26 -24 -26 -5 0 -3 13 6 30 8 16 15 31 15 35 0 8 -43 6
-56 -3z m26 -19 c0 -5 -5 -15 -10 -23 -8 -12 -10 -11 -10 8 0 12 5 22 10 22 6
0 10 -3 10 -7z"/>
<path d="M3514 4285 c-24 -36 -6 -75 34 -75 35 0 52 16 52 52 0 49 -59 65 -86
23z m61 -30 c0 -30 -39 -27 -43 3 -3 20 0 23 20 20 15 -2 23 -10 23 -23z"/>
<path d="M2124 4265 c-14 -21 -15 -31 -6 -50 7 -14 18 -25 27 -25 18 0 19 4 3
30 -10 15 -10 22 -1 31 17 17 43 3 43 -22 0 -24 23 -21 28 4 4 21 -33 57 -58
57 -11 0 -27 -11 -36 -25z"/>
<path d="M3258 4203 c-9 -10 -19 -29 -22 -43 -6 -22 -1 -27 46 -48 39 -17 53
-19 59 -10 4 7 3 16 -3 19 -6 4 -12 27 -12 51 -1 38 -4 43 -27 46 -15 2 -32
-4 -41 -15z m52 -25 c0 -23 -16 -39 -33 -32 -19 7 -19 7 -11 28 7 19 44 22 44
4z"/>
<path d="M3476 4202 c-3 -9 -8 -22 -11 -28 -3 -7 7 -16 22 -22 15 -5 36 -13
46 -17 28 -12 21 20 -8 33 -14 6 -25 18 -25 26 0 22 -17 28 -24 8z"/>
<path d="M2166 4174 c-19 -18 -20 -38 -6 -65 16 -30 30 -22 25 14 l-5 32 15
-32 c17 -38 18 -38 39 -17 31 30 9 84 -34 84 -10 0 -26 -7 -34 -16z m62 -32
c6 -18 -15 -14 -22 4 -4 10 -1 14 6 12 6 -2 14 -10 16 -16z"/>
<path d="M3418 4133 c-30 -34 -27 -87 7 -109 35 -23 80 -4 95 39 9 28 8 34
-11 50 -15 12 -25 15 -33 7 -7 -7 -4 -14 10 -24 15 -12 17 -18 8 -33 -14 -23
-41 -28 -59 -13 -20 16 -19 45 1 65 11 10 13 20 7 26 -6 6 -15 3 -25 -8z"/>
<path d="M907 3595 c-19 -38 -23 -56 -15 -61 7 -4 13 -3 15 2 12 32 22 38 48
26 20 -9 25 -17 20 -30 -11 -28 -11 -34 0 -38 16 -6 67 103 53 112 -7 4 -13 3
-15 -2 -11 -30 -20 -35 -46 -23 -22 10 -24 15 -16 31 10 18 5 38 -10 38 -4 0
-19 -25 -34 -55z"/>
<path d="M4522 3600 c-22 -9 -22 -11 -7 -46 8 -20 15 -38 15 -40 0 -2 7 -4 15
-4 18 0 18 2 3 35 -9 19 -9 28 0 37 25 25 14 33 -26 18z"/>
<path d="M4428 3559 c-21 -12 -24 -59 -6 -77 18 -18 53 -14 73 8 14 16 15 20
4 20 -8 0 -20 -5 -26 -11 -6 -6 -17 -8 -23 -4 -8 5 -2 12 19 21 36 15 39 29
12 44 -24 12 -31 12 -53 -1z m42 -18 c0 -10 -30 -24 -37 -17 -3 3 -2 9 2 15 8
13 35 15 35 2z"/>
<path d="M1041 3533 c-23 -16 -28 -55 -8 -70 21 -17 46 -22 53 -12 3 6 -3 13
-15 16 -12 3 -21 12 -21 19 0 12 5 11 26 -2 33 -22 53 -6 37 29 -14 30 -46 39
-72 20z m49 -23 c0 -5 -4 -10 -9 -10 -6 0 -13 5 -16 10 -3 6 1 10 9 10 9 0 16
-4 16 -10z"/>
<path d="M4317 3502 c-24 -26 -21 -49 7 -67 18 -12 30 -13 50 -6 37 15 33 32
-6 24 -22 -4 -29 -3 -24 5 4 7 13 12 19 12 7 0 18 4 26 9 12 8 12 12 2 25 -18
21 -54 20 -74 -2z m53 -11 c0 -5 -9 -11 -20 -14 -20 -5 -26 3 -13 16 9 10 33
8 33 -2z"/>
<path d="M1146 3491 c-3 -5 5 -12 19 -15 38 -10 30 -26 -12 -23 -53 3 -58 -26
-8 -50 36 -17 37 -17 51 2 24 32 18 74 -12 85 -31 12 -31 12 -38 1z m24 -61
c0 -5 -7 -10 -15 -10 -8 0 -15 5 -15 10 0 6 7 10 15 10 8 0 15 -4 15 -10z"/>
<path d="M4260 3480 c0 -5 -9 -10 -20 -10 -19 0 -19 -1 0 -42 10 -24 24 -44
29 -46 14 -5 14 23 1 48 -7 13 -7 21 0 25 13 8 13 35 0 35 -5 0 -10 -4 -10
-10z"/>
<path d="M1237 3429 c-18 -32 -25 -55 -19 -61 6 -6 21 12 41 46 35 63 36 66
19 66 -7 0 -26 -23 -41 -51z"/>
<path d="M1297 3433 c-11 -3 -16 -11 -13 -19 3 -8 0 -25 -6 -39 -8 -19 -8 -28
2 -40 20 -24 30 -18 23 16 -5 25 -2 31 16 36 14 4 20 11 17 20 -3 8 -6 19 -6
24 0 9 -3 10 -33 2z"/>
<path d="M4144 3426 c-10 -8 -16 -18 -12 -22 4 -4 14 -1 23 6 9 7 19 10 23 6
4 -4 -4 -15 -17 -25 -29 -22 -22 -51 11 -51 37 1 61 25 53 52 -15 49 -43 61
-81 34z m56 -45 c0 -12 -20 -25 -27 -18 -7 7 6 27 18 27 5 0 9 -4 9 -9z"/>
<path d="M1353 3365 c-30 -62 -24 -84 12 -40 19 24 26 27 36 18 10 -10 10 -18
0 -39 -17 -37 1 -52 23 -19 22 33 17 67 -11 80 -17 7 -21 15 -17 32 11 43 -16
23 -43 -32z"/>
<path d="M4027 3408 c-9 -7 -19 -24 -22 -38 -8 -33 27 -80 60 -80 26 0 74 35
63 46 -4 4 -14 1 -22 -5 -35 -29 -93 10 -70 47 6 9 20 19 30 20 10 2 23 8 29
13 14 14 -49 11 -68 -3z"/>
<path d="M1855 2959 c8 -22 19 -58 25 -80 9 -33 15 -40 32 -37 16 2 26 16 38
52 18 54 22 53 39 -11 9 -31 17 -43 30 -43 15 0 25 18 45 77 14 42 24 79 21
81 -12 13 -33 -11 -45 -52 -7 -25 -15 -46 -19 -46 -3 0 -13 21 -21 48 -20 62
-42 66 -60 10 -20 -64 -27 -65 -47 -9 -12 35 -23 51 -35 51 -16 0 -16 -3 -3
-41z"/>
<path d="M2120 2920 c0 -64 3 -80 15 -80 11 0 15 11 15 36 0 35 1 35 38 32 34
-3 37 -6 40 -35 2 -21 9 -33 18 -33 11 0 14 17 14 80 0 64 -3 80 -15 80 -10 0
-15 -10 -15 -30 0 -28 -2 -30 -40 -30 -38 0 -40 2 -40 30 0 20 -5 30 -15 30
-12 0 -15 -16 -15 -80z"/>
<path d="M2300 2920 l0 -80 60 0 c47 0 60 3 60 15 0 11 -12 15 -45 15 -38 0
-45 3 -45 20 0 17 7 20 41 20 52 0 48 24 -4 28 -24 2 -37 8 -37 18 0 10 13 14
45 14 33 0 45 4 45 15 0 12 -13 15 -60 15 l-60 0 0 -80z"/>
<path d="M2450 2920 l0 -80 60 0 c46 0 60 3 60 14 0 10 -14 16 -42 18 -57 4
-60 32 -5 36 49 4 44 26 -6 30 -24 2 -37 8 -37 18 0 10 13 14 46 14 69 0 52
24 -19 28 l-57 3 0 -81z"/>
<path d="M2600 2920 l0 -80 61 0 c44 0 60 3 57 13 -3 6 -21 13 -41 15 -20 2
-37 6 -38 10 0 4 -2 30 -4 57 -3 67 -3 65 -20 65 -12 0 -15 -16 -15 -80z"/>
<path d="M2813 2974 c-50 -50 -10 -134 64 -134 44 0 83 37 83 80 0 72 -94 107
-147 54z m109 -29 c16 -36 -6 -75 -42 -75 -33 0 -50 17 -50 50 0 34 17 50 52
50 21 0 32 -7 40 -25z"/>
<path d="M2990 2920 c0 -72 2 -81 17 -78 11 2 18 13 18 28 0 21 6 26 34 30 51
7 52 30 2 30 -34 0 -40 3 -38 20 1 17 8 20 45 20 67 0 49 24 -21 28 l-57 3 0
-81z"/>
<path d="M3200 2920 l0 -80 55 0 c42 0 55 3 55 15 0 11 -11 15 -40 15 l-40 0
0 65 c0 51 -3 65 -15 65 -12 0 -15 -16 -15 -80z"/>
<path d="M3337 2993 c-4 -3 -7 -39 -7 -80 0 -66 2 -73 20 -73 18 0 20 7 20 80
0 60 -3 80 -13 80 -8 0 -17 -3 -20 -7z"/>
<path d="M3410 2920 c0 -64 3 -80 15 -80 10 0 15 10 15 29 0 27 3 30 38 33 20
2 37 8 37 13 0 6 -17 11 -37 13 -30 3 -38 7 -38 23 0 16 7 19 40 19 29 0 40 4
40 15 0 12 -13 15 -55 15 l-55 0 0 -80z"/>
<path d="M3550 2920 l0 -80 60 0 c47 0 60 3 60 15 0 11 -11 15 -40 15 -33 0
-40 3 -40 20 0 16 7 20 36 20 24 0 34 4 31 13 -2 6 -18 12 -35 11 -24 0 -32 4
-32 18 0 14 8 18 40 18 29 0 40 4 40 15 0 12 -13 15 -60 15 l-60 0 0 -80z"/>
<path d="M2036 2669 c-20 -16 -26 -29 -26 -58 0 -64 64 -101 121 -70 30 15 13
28 -28 22 -28 -5 -39 -2 -49 12 -32 44 -2 91 53 82 38 -7 53 7 24 22 -31 17
-66 13 -95 -10z"/>
<path d="M2197 2610 c-31 -71 -33 -80 -17 -80 10 0 20 7 24 15 3 10 19 15 45
15 25 0 41 -5 45 -15 5 -13 36 -22 36 -11 0 9 -54 131 -63 144 -19 25 -34 10
-70 -68z m68 3 c5 -20 3 -23 -18 -23 -24 0 -25 2 -14 30 12 31 20 29 32 -7z"/>
<path d="M2340 2675 c0 -9 9 -15 23 -15 20 0 22 -4 22 -62 0 -52 3 -63 18 -66
15 -3 17 5 17 62 0 64 1 66 25 66 16 0 25 6 25 15 0 12 -14 15 -65 15 -51 0
-65 -3 -65 -15z"/>
<path d="M2497 2683 c-4 -3 -7 -39 -7 -80 l0 -73 60 0 c47 0 60 3 60 15 0 11
-11 15 -40 15 -33 0 -40 3 -40 20 0 16 7 20 35 20 19 0 35 5 35 10 0 6 -16 10
-35 10 -28 0 -35 4 -35 20 0 17 7 20 40 20 29 0 40 4 40 15 0 11 -13 15 -53
15 -30 0 -57 -3 -60 -7z"/>
<path d="M2666 2668 c-39 -35 -42 -69 -11 -106 27 -32 68 -42 109 -26 22 8 22
74 1 74 -9 0 -15 -9 -15 -25 0 -21 -5 -25 -30 -25 -46 0 -66 52 -33 85 11 12
26 15 50 12 38 -7 53 7 24 22 -32 17 -68 13 -95 -11z"/>
<path d="M2835 2665 c-52 -51 -15 -135 60 -135 46 0 85 36 85 80 0 71 -94 107
-145 55z m93 -17 c7 -7 12 -24 12 -38 0 -34 -17 -50 -52 -50 -20 0 -32 7 -40
25 -22 48 43 100 80 63z"/>
<path d="M3010 2610 c0 -64 3 -80 15 -80 8 0 15 9 15 20 0 13 7 20 20 20 11 0
25 -9 32 -20 7 -11 21 -20 30 -20 22 0 23 8 3 30 -14 15 -14 18 0 30 23 19 19
66 -7 84 -12 9 -42 16 -65 16 l-43 0 0 -80z m90 35 c17 -20 -3 -45 -36 -45
-20 0 -24 5 -24 30 0 25 4 30 24 30 13 0 29 -7 36 -15z"/>
<path d="M3177 2684 c-4 -4 -7 -40 -7 -81 0 -67 2 -73 20 -73 19 0 21 5 18 77
-3 70 -13 95 -31 77z"/>
<path d="M3250 2610 l0 -80 60 0 c47 0 60 3 60 15 0 11 -12 15 -46 15 -38 0
-45 3 -42 18 2 11 14 18 36 20 43 4 41 22 -3 22 -28 0 -35 4 -35 20 0 17 7 20
46 20 69 0 52 24 -19 28 l-57 3 0 -81z"/>
<path d="M3412 2674 c-40 -28 -27 -62 32 -81 47 -15 46 -35 -2 -32 -45 3 -65
-7 -42 -21 29 -18 88 -12 104 12 20 28 6 53 -39 68 -48 16 -48 44 0 38 21 -2
36 1 39 8 10 26 -58 32 -92 8z"/>
<path d="M1464 2301 l-31 -17 20 -40 c24 -48 23 -47 36 -39 7 4 6 16 -4 36 -9
16 -13 34 -10 39 11 18 31 11 45 -15 12 -23 40 -35 40 -17 0 10 -31 55 -44 64
-14 10 -16 10 -52 -11z"/>
<path d="M4112 2297 c-25 -31 -51 -96 -41 -102 6 -4 16 1 24 11 11 16 17 16
39 6 21 -9 26 -9 26 3 0 7 -9 17 -20 20 -11 3 -20 11 -20 16 0 16 27 21 49 10
11 -6 22 -7 25 -2 3 5 -12 18 -33 29 -30 16 -42 18 -49 9z"/>
<path d="M1362 2244 c-28 -19 -28 -58 -1 -78 19 -13 25 -13 50 0 36 18 39 56
7 78 -12 9 -25 16 -28 16 -3 0 -16 -7 -28 -16z m43 -39 c0 -11 -7 -21 -16 -23
-18 -3 -33 23 -23 39 10 17 39 5 39 -16z"/>
<path d="M928 2239 c-20 -11 -24 -44 -7 -54 6 -4 8 -13 5 -21 -9 -24 5 -44 33
-44 29 1 94 51 73 58 -6 2 -12 10 -12 18 0 8 -4 14 -10 14 -5 0 -10 -4 -10
-10 0 -5 -7 -10 -16 -10 -11 0 -14 5 -10 16 6 16 -9 44 -23 44 -3 0 -14 -5
-23 -11z m26 -30 c-3 -5 -10 -7 -15 -3 -5 3 -7 10 -3 15 3 5 10 7 15 3 5 -3 7
-10 3 -15z m34 -51 c-7 -19 -38 -22 -38 -4 0 10 9 16 21 16 12 0 19 -5 17 -12z"/>
<path d="M1266 2243 c-11 -11 -6 -23 9 -23 8 0 15 4 15 9 0 13 -16 22 -24 14z"/>
<path d="M4286 2232 c-3 -6 -1 -14 5 -17 15 -10 25 3 12 16 -7 7 -13 7 -17 1z"/>
<path d="M4187 2195 c-20 -41 -21 -55 -7 -55 6 0 15 11 20 25 6 15 17 25 29
25 30 0 33 16 5 29 -14 6 -26 11 -28 11 -1 0 -10 -16 -19 -35z"/>
<path d="M1287 2204 c-8 -9 31 -84 43 -84 14 0 12 14 -7 55 -17 35 -24 41 -36
29z"/>
<path d="M4253 2156 c-17 -34 -19 -45 -9 -49 14 -6 59 76 49 87 -12 12 -19 5
-40 -38z"/>
<path d="M1207 2171 c-2 -10 6 -28 19 -40 13 -13 24 -27 24 -33 0 -15 43 -5
48 11 3 9 0 12 -10 9 -18 -7 -38 23 -32 48 4 15 -1 19 -20 20 -15 1 -26 -4
-29 -15z"/>
<path d="M4310 2150 c-11 -11 -20 -29 -20 -39 0 -20 35 -51 57 -51 20 0 15 18
-7 25 -11 3 -20 11 -20 16 0 9 17 7 58 -8 22 -9 14 45 -10 61 -29 20 -34 20
-58 -4z m55 -21 c11 -17 0 -20 -21 -4 -17 13 -17 14 -2 15 9 0 20 -5 23 -11z"/>
<path d="M4012 2098 c-14 -32 -19 -55 -13 -61 6 -6 14 -1 20 12 10 17 16 19
31 11 10 -5 23 -10 29 -10 20 0 11 17 -14 28 -15 7 -23 17 -19 26 5 12 10 12
40 0 27 -12 34 -12 34 -1 0 7 -17 19 -37 27 -21 8 -40 16 -43 17 -3 1 -15 -21
-28 -49z"/>
<path d="M790 2125 c-7 -8 -19 -15 -27 -15 -11 0 -9 -9 8 -40 13 -22 29 -40
36 -40 17 0 16 5 -3 35 -9 13 -13 29 -9 35 11 18 35 11 47 -15 6 -14 15 -25
19 -25 17 0 17 18 -1 48 -21 34 -50 41 -70 17z"/>
<path d="M1130 2115 c-16 -19 -5 -34 12 -17 7 7 19 12 28 11 11 0 9 -4 -7 -16
-26 -17 -30 -51 -9 -59 14 -5 76 21 76 32 0 3 -7 18 -15 34 -12 23 -23 30 -44
30 -16 0 -34 -7 -41 -15z m60 -50 c-7 -8 -16 -12 -21 -9 -13 8 -1 24 18 24 13
0 13 -3 3 -15z"/>
<path d="M4404 2085 c-19 -47 -7 -65 17 -26 10 17 23 31 29 31 17 0 22 -27 10
-50 -8 -15 -9 -25 -2 -32 7 -7 16 0 26 20 24 46 20 61 -19 78 -46 19 -44 19
-61 -21z"/>
<path d="M715 2081 c-3 -5 0 -21 7 -36 9 -20 9 -28 -1 -38 -10 -9 -17 -6 -36
17 -31 39 -51 30 -25 -11 22 -37 47 -42 85 -17 l24 16 -19 39 c-22 41 -25 45
-35 30z"/>
<path d="M1040 2060 c-24 -24 -24 -29 -4 -58 18 -26 41 -28 72 -6 29 20 18 38
-12 19 -12 -8 -26 -12 -29 -8 -4 3 7 15 24 25 25 15 29 21 19 33 -17 21 -46
19 -70 -5z m37 -17 c-9 -9 -19 -14 -23 -11 -10 10 6 28 24 28 15 0 15 -1 -1
-17z"/>
<path d="M4120 2060 c0 -5 6 -10 14 -10 7 0 19 -7 26 -15 12 -14 8 -15 -28 -9
-38 6 -42 5 -42 -15 0 -29 66 -63 81 -41 22 35 22 63 -1 82 -24 20 -50 24 -50
8z m30 -60 c0 -5 -7 -10 -15 -10 -8 0 -15 5 -15 10 0 6 7 10 15 10 8 0 15 -4
15 -10z"/>
<path d="M4607 2056 c-5 -12 -11 -13 -37 -3 -29 11 -34 10 -50 -10 -25 -31
-15 -61 28 -79 19 -8 36 -13 37 -12 6 7 55 108 55 113 0 12 -28 4 -33 -9z
m-29 -43 c4 -25 -22 -37 -38 -17 -10 11 -10 17 0 29 17 20 34 14 38 -12z"/>
<path d="M568 2039 l-38 -19 27 -55 c15 -30 30 -55 34 -55 15 0 20 21 9 35 -9
11 -6 17 14 30 29 19 25 41 -4 25 -26 -14 -40 -12 -40 5 0 8 4 15 8 15 5 0 16
6 27 13 30 23 3 27 -37 6z"/>
<path d="M975 2026 c-11 -6 -22 -12 -23 -13 -2 -1 7 -20 21 -43 26 -44 50 -39
27 6 -10 18 -10 27 -1 38 16 19 1 27 -24 12z"/>
<path d="M4209 1989 c-14 -28 -17 -45 -11 -51 7 -7 16 0 26 21 17 32 46 42 46
15 0 -8 -5 -25 -11 -36 -7 -13 -8 -23 -1 -30 7 -7 16 0 26 21 17 32 46 42 46
15 0 -8 -5 -25 -11 -36 -7 -13 -7 -24 -1 -30 14 -14 42 29 42 64 0 22 -6 29
-27 34 -16 4 -35 12 -43 18 -52 39 -58 38 -81 -5z"/>
<path d="M4633 1995 c-3 -9 2 -24 11 -34 22 -24 20 -34 -5 -21 -28 15 -38 4
-13 -15 43 -32 83 -3 49 35 -21 23 -13 39 10 20 9 -7 19 -10 23 -6 9 10 -27
36 -50 36 -10 0 -21 -7 -25 -15z"/>
<path d="M874 1965 c-15 -23 -15 -27 0 -50 20 -31 49 -32 78 -3 24 24 9 39
-17 18 -8 -7 -22 -10 -30 -6 -23 9 -18 35 10 46 32 12 32 20 0 20 -15 0 -31
-9 -41 -25z"/>
<path d="M4410 1965 c0 -9 5 -15 11 -13 6 2 11 8 11 13 0 5 -5 11 -11 13 -6 2
-11 -4 -11 -13z"/>
<path d="M4797 1963 c-4 -3 -7 -15 -7 -25 0 -10 -7 -18 -15 -18 -21 0 -35 -32
-24 -52 5 -10 26 -22 47 -28 46 -12 55 -13 47 -1 -3 5 -1 12 5 16 17 10 11 25
-10 25 -11 0 -20 3 -20 8 0 4 9 13 20 20 25 16 26 38 1 52 -23 12 -35 13 -44
3z m35 -28 c0 -5 -5 -11 -11 -13 -6 -2 -11 4 -11 13 0 9 5 15 11 13 6 -2 11
-8 11 -13z m-28 -51 c8 -22 8 -24 -8 -24 -18 0 -29 16 -21 30 9 15 22 12 29
-6z"/>
<path d="M4434 1895 c-27 -63 -28 -65 -14 -65 10 0 60 91 60 110 0 28 -24 4
-46 -45z"/>
<path d="M788 1928 c-20 -16 -24 -36 -14 -65 10 -30 56 -31 81 -3 16 18 16 20
2 20 -10 0 -17 -4 -17 -10 0 -5 -10 -10 -22 -10 -23 1 -23 1 -3 16 11 8 27 20
35 25 13 8 12 11 -4 24 -24 18 -37 19 -58 3z m37 -17 c3 -6 -4 -15 -15 -21
-16 -8 -20 -8 -20 3 0 25 23 36 35 18z"/>
<path d="M4377 1903 c-14 -37 -14 -53 2 -53 4 0 13 17 21 38 8 20 16 40 18 45
2 4 -3 7 -11 7 -8 0 -22 -17 -30 -37z"/>
<path d="M667 1893 c-20 -8 -37 -20 -37 -25 0 -25 53 -106 66 -101 8 3 11 9 8
15 -3 5 -3 15 0 23 4 12 10 13 31 3 18 -8 29 -8 36 -1 8 8 5 13 -11 18 -14 4
-19 12 -16 22 7 17 -8 49 -26 56 -8 2 -30 -2 -51 -10z m50 -29 c6 -16 -11 -34
-33 -34 -18 0 -27 32 -12 42 20 12 38 9 45 -8z"/>
<path d="M4478 1848 c-3 -49 -5 -53 -25 -50 -31 4 -29 -16 2 -24 20 -5 34 2
69 32 24 22 45 42 45 47 2 13 -26 7 -39 -8 -19 -23 -27 -18 -26 17 1 17 -4 33
-11 35 -8 3 -13 -13 -15 -49z"/>
<path d="M3378 1562 c-28 -9 -48 -22 -48 -30 0 -9 7 -13 19 -9 14 3 23 -3 31
-23 6 -16 21 -30 32 -33 24 -7 62 28 54 50 -3 8 -9 26 -12 39 -7 27 -12 28
-76 6z m62 -42 c0 -28 -21 -36 -37 -15 -17 25 -17 33 5 38 24 5 32 -1 32 -23z"/>
<path d="M3230 1478 c-30 -11 -56 -22 -57 -23 -2 -1 4 -23 13 -49 11 -32 20
-44 26 -38 7 7 7 21 0 41 -9 26 -8 31 4 31 8 0 19 -12 24 -26 6 -14 14 -23 20
-19 6 3 6 15 0 29 -8 23 -5 36 11 36 4 0 10 -13 14 -30 4 -17 13 -30 21 -30
16 0 14 16 -10 72 l-11 26 -55 -20z"/>
<path d="M2120 1470 c-14 -26 -4 -60 17 -60 8 0 23 10 34 23 15 18 18 19 19 5
0 -9 -5 -20 -10 -23 -6 -4 -8 -11 -4 -16 10 -17 34 12 34 43 0 39 -27 48 -51
17 -10 -13 -21 -20 -25 -16 -4 4 -2 13 4 19 14 14 16 28 2 28 -5 0 -14 -9 -20
-20z"/>
<path d="M3418 1442 c-61 -20 -65 -43 -7 -40 52 4 64 -18 20 -33 -17 -6 -31
-17 -31 -25 0 -17 2 -17 47 1 33 14 35 17 30 49 -4 25 -1 36 9 40 20 8 17 26
-3 25 -10 0 -39 -8 -65 -17z"/>
<path d="M2081 1368 c-20 -54 29 -92 73 -57 28 22 35 59 11 59 -8 0 -15 -9
-15 -19 0 -11 -4 -23 -10 -26 -13 -8 -13 6 0 39 9 24 8 26 -21 26 -22 0 -32
-6 -38 -22z m39 -12 c0 -8 -4 -18 -10 -21 -5 -3 -10 3 -10 14 0 12 5 21 10 21
6 0 10 -6 10 -14z"/>
<path d="M3253 1357 c-42 -15 -38 -32 6 -32 45 0 52 -22 12 -36 -17 -6 -31
-17 -31 -25 0 -17 3 -17 45 0 26 11 35 21 35 39 0 13 -3 27 -7 31 -5 4 -8 13
-8 19 0 16 -16 17 -52 4z"/>
<path d="M3455 1310 c-31 -32 -55 -39 -55 -15 0 8 -4 15 -10 15 -18 0 -11 -39
9 -50 25 -13 131 -13 131 0 0 6 -17 10 -37 10 l-36 0 21 23 c22 23 29 47 14
47 -5 0 -21 -13 -37 -30z"/>
<path d="M2057 1286 c-34 -34 -16 -86 30 -86 26 0 58 42 49 66 -8 20 -26 9
-26 -17 0 -12 -7 -19 -19 -19 -26 0 -36 17 -21 35 19 23 7 41 -13 21z"/>
<path d="M3297 1236 c-52 -44 -43 -66 25 -66 35 0 48 4 46 13 -5 12 -9 13 -50
16 l-21 1 22 24 c36 39 20 48 -22 12z"/>
<path d="M3497 1223 c-4 -3 -7 -20 -8 -37 l-1 -31 -11 28 c-12 31 -27 36 -27
9 0 -28 24 -55 46 -50 14 3 18 11 16 31 -1 15 2 27 8 27 5 0 10 -9 10 -21 0
-12 5 -19 13 -16 13 5 11 35 -5 55 -11 13 -31 16 -41 5z"/>
<path d="M2004 1155 c-19 -47 -18 -52 17 -64 63 -22 80 -8 28 22 -49 27 -29
51 29 33 32 -10 29 18 -3 32 -41 19 -55 14 -71 -23z"/>
<path d="M3400 1156 c0 -9 7 -16 16 -16 17 0 14 22 -4 28 -7 2 -12 -3 -12 -12z"/>
<path d="M3584 1149 c-10 -17 13 -36 27 -22 12 12 4 33 -11 33 -5 0 -12 -5
-16 -11z"/>
<path d="M3323 1138 c-39 -13 -47 -44 -8 -34 49 12 76 26 70 36 -7 12 -19 11
-62 -2z"/>
<path d="M3513 1124 c-39 -17 -45 -39 -8 -30 49 12 76 26 70 36 -8 13 -23 12
-62 -6z"/>
<path d="M3343 1088 c-47 -15 -44 -41 3 -32 25 4 39 3 44 -6 14 -23 29 -2 17
25 -13 27 -17 28 -64 13z"/>
<path d="M3528 1079 c-22 -12 -24 -62 -3 -79 20 -17 32 -5 15 15 -7 8 -10 22
-6 30 7 18 35 20 40 3 15 -50 17 -53 26 -38 12 19 3 51 -18 68 -19 14 -31 15
-54 1z"/>
<path d="M1973 1062 c-15 -10 -28 -62 -15 -62 5 0 12 9 15 20 8 31 22 23 22
-12 0 -49 31 -50 51 -3 8 21 14 38 12 40 -26 22 -65 30 -85 17z m57 -47 c0 -8
-4 -15 -10 -15 -5 0 -10 7 -10 15 0 8 5 15 10 15 6 0 10 -7 10 -15z"/>
<path d="M3370 1017 c-31 -15 -37 -52 -14 -78 35 -39 88 -15 82 37 -4 38 -36
57 -68 41z m45 -42 c0 -13 -8 -21 -22 -23 -17 -3 -23 2 -23 16 0 10 3 22 7 26
13 13 38 1 38 -19z"/>
<path d="M3600 984 c0 -3 5 -14 10 -24 6 -10 6 -21 1 -24 -4 -3 -13 6 -20 20
-18 40 -46 28 -45 -20 2 -52 14 -61 58 -42 29 12 36 20 36 43 0 16 -5 34 -12
41 -13 13 -28 16 -28 6z m-20 -49 c0 -8 -4 -15 -10 -15 -5 0 -10 7 -10 15 0 8
5 15 10 15 6 0 10 -7 10 -15z"/>
<path d="M1932 958 c-7 -7 -12 -20 -12 -29 0 -10 -4 -21 -10 -24 -5 -3 -10 -9
-10 -13 0 -10 87 -42 94 -35 12 13 5 21 -25 32 -21 7 -29 16 -27 28 4 18 15
20 56 7 36 -11 27 22 -9 35 -40 14 -42 14 -57 -1z"/>
<path d="M3420 906 c-19 -7 -36 -20 -38 -29 -3 -14 1 -15 28 -5 41 14 66 -5
36 -28 -11 -8 -26 -14 -33 -14 -7 0 -13 -7 -13 -15 0 -18 7 -18 48 -4 17 6 33
17 36 24 4 12 -19 87 -27 84 -1 0 -18 -6 -37 -13z"/>
<path d="M3628 876 c-32 -11 -58 -26 -58 -33 0 -18 10 -16 75 8 31 12 55 27
55 35 0 17 0 17 -72 -10z"/>
<path d="M1842 858 c6 -18 28 -21 28 -4 0 9 -7 16 -16 16 -9 0 -14 -5 -12 -12z"/>
<path d="M1884 849 c-7 -13 -8 -12 42 -32 39 -15 54 -14 54 4 0 13 -89 39 -96
28z"/>
<path d="M1830 788 l-19 -43 42 -18 c22 -10 50 -19 61 -20 27 -3 31 19 5 26
-16 4 -20 10 -15 24 12 29 12 35 0 40 -7 2 -15 -8 -18 -22 -10 -39 -32 -25
-28 19 4 47 -5 46 -28 -6z"/>
<path d="M3453 788 c-49 -16 -44 -40 7 -32 32 5 40 4 40 -9 0 -8 -13 -20 -30
-26 -17 -5 -30 -17 -30 -27 0 -12 5 -14 18 -9 31 14 56 11 60 -7 2 -10 -3 -18
-10 -18 -20 0 -54 -27 -46 -35 4 -4 22 -2 42 5 40 13 55 43 33 68 -8 9 -18 36
-22 60 -7 44 -11 46 -62 30z"/>
<path d="M3508 609 c-21 -12 -24 -62 -5 -78 18 -14 30 -2 16 15 -6 7 -9 19 -6
26 3 8 11 -1 18 -19 16 -39 23 -40 43 -12 16 23 12 47 -12 67 -19 14 -31 15
-54 1z m52 -41 c0 -19 -2 -20 -10 -8 -13 19 -13 30 0 30 6 0 10 -10 10 -22z"/>
<path d="M3558 503 c-42 -17 -55 -50 -15 -37 37 12 51 10 55 -9 2 -12 -6 -21
-27 -28 -30 -11 -39 -23 -23 -32 15 -10 82 25 82 43 0 14 -28 82 -33 79 -1 -1
-19 -8 -39 -16z"/>
<path d="M3622 398 c-6 -6 -21 -16 -34 -22 -24 -12 -31 -47 -10 -53 6 -3 12 2
12 10 0 19 42 35 48 18 2 -6 7 -11 12 -11 7 0 10 8 19 45 4 14 -35 25 -47 13z"/>
</g>
</svg>
